<svg id="svg" version="1.1" xmlns="http://www.w3.org/2000/svg" xmlns:xlink="http://www.w3.org/1999/xlink" width="400" height="400" viewBox="0, 0, 400,400"><g id="svgg"><path id="path0" d="M274.000 20.800 C 274.000 21.040,272.400 21.200,270.000 21.200 C 267.600 21.200,266.000 21.360,266.000 21.600 C 266.000 21.833,264.667 22.000,262.800 22.000 C 260.933 22.000,259.600 22.167,259.600 22.400 C 259.600 22.622,258.533 22.800,257.200 22.800 C 255.867 22.800,254.800 22.978,254.800 23.200 C 254.800 23.420,254.091 23.600,253.224 23.600 C 252.357 23.600,251.536 23.780,251.400 24.000 C 251.264 24.220,250.353 24.400,249.376 24.400 C 248.399 24.400,247.600 24.580,247.600 24.800 C 247.600 25.020,247.060 25.200,246.400 25.200 C 245.740 25.200,245.200 25.380,245.200 25.600 C 245.200 25.820,244.660 26.000,244.000 26.000 C 243.340 26.000,242.800 26.180,242.800 26.400 C 242.800 26.620,242.080 26.800,241.200 26.800 C 240.320 26.800,239.600 26.980,239.600 27.200 C 239.600 27.420,239.060 27.600,238.400 27.600 C 237.740 27.600,237.200 27.780,237.200 28.000 C 237.200 28.220,236.840 28.400,236.400 28.400 C 235.960 28.400,235.600 28.580,235.600 28.800 C 235.600 29.020,235.060 29.200,234.400 29.200 C 233.740 29.200,233.200 29.380,233.200 29.600 C 233.200 29.820,232.761 30.000,232.224 30.000 C 231.687 30.000,231.136 30.180,231.000 30.400 C 230.864 30.620,230.403 30.800,229.976 30.800 C 229.549 30.800,229.200 30.980,229.200 31.200 C 229.200 31.420,228.840 31.600,228.400 31.600 C 227.960 31.600,227.600 31.780,227.600 32.000 C 227.600 32.220,227.240 32.400,226.800 32.400 C 226.360 32.400,226.000 32.580,226.000 32.800 C 226.000 33.020,225.640 33.200,225.200 33.200 C 224.760 33.200,224.400 33.380,224.400 33.600 C 224.400 33.820,224.040 34.000,223.600 34.000 C 223.160 34.000,222.800 34.180,222.800 34.400 C 222.800 34.620,222.564 34.800,222.275 34.800 C 221.987 34.800,221.364 35.160,220.892 35.600 C 220.420 36.040,219.756 36.400,219.417 36.400 C 219.078 36.400,218.800 36.580,218.800 36.800 C 218.800 37.020,218.480 37.200,218.088 37.200 C 217.697 37.200,217.117 37.560,216.800 38.000 C 216.483 38.440,215.903 38.800,215.512 38.800 C 215.120 38.800,214.800 38.950,214.800 39.132 C 214.800 39.315,214.305 39.719,213.700 40.030 C 213.095 40.340,212.309 40.911,211.953 41.297 C 211.597 41.684,211.088 42.000,210.822 42.000 C 210.555 42.000,209.646 42.720,208.800 43.600 C 207.954 44.480,207.054 45.200,206.800 45.200 C 206.546 45.200,205.646 45.920,204.800 46.800 C 203.954 47.680,203.059 48.400,202.811 48.400 C 202.259 48.400,194.000 56.701,194.000 57.256 C 194.000 57.474,193.100 58.529,192.000 59.600 C 190.900 60.671,190.000 61.718,190.000 61.926 C 190.000 62.134,189.280 63.045,188.400 63.952 C 187.520 64.859,186.800 65.831,186.800 66.112 C 186.800 66.393,186.440 66.883,186.000 67.200 C 185.560 67.517,185.200 68.057,185.200 68.400 C 185.200 68.743,184.840 69.283,184.400 69.600 C 183.960 69.917,183.600 70.457,183.600 70.800 C 183.600 71.143,183.240 71.683,182.800 72.000 C 182.360 72.317,182.000 72.897,182.000 73.288 C 182.000 73.680,181.820 74.000,181.600 74.000 C 181.380 74.000,181.200 74.278,181.200 74.617 C 181.200 74.956,180.840 75.620,180.400 76.092 C 179.960 76.564,179.600 77.187,179.600 77.475 C 179.600 77.764,179.420 78.000,179.200 78.000 C 178.980 78.000,178.800 78.360,178.800 78.800 C 178.800 79.240,178.620 79.600,178.400 79.600 C 178.180 79.600,178.000 79.960,178.000 80.400 C 178.000 80.840,177.820 81.200,177.600 81.200 C 177.380 81.200,177.200 81.560,177.200 82.000 C 177.200 82.440,177.020 82.800,176.800 82.800 C 176.580 82.800,176.400 83.160,176.400 83.600 C 176.400 84.040,176.220 84.400,176.000 84.400 C 175.780 84.400,175.600 84.760,175.600 85.200 C 175.600 85.640,175.420 86.000,175.200 86.000 C 174.980 86.000,174.800 86.360,174.800 86.800 C 174.800 87.240,174.620 87.600,174.400 87.600 C 174.180 87.600,174.000 88.140,174.000 88.800 C 174.000 89.460,173.820 90.000,173.600 90.000 C 173.380 90.000,173.200 90.360,173.200 90.800 C 173.200 91.240,173.020 91.600,172.800 91.600 C 172.580 91.600,172.400 92.140,172.400 92.800 C 172.400 93.460,172.220 94.000,172.000 94.000 C 171.780 94.000,171.600 94.360,171.600 94.800 C 171.600 95.240,171.420 95.600,171.200 95.600 C 170.980 95.600,170.800 96.140,170.800 96.800 C 170.800 97.460,170.620 98.000,170.400 98.000 C 170.180 98.000,170.000 98.540,170.000 99.200 C 170.000 99.860,169.820 100.400,169.600 100.400 C 169.380 100.400,169.200 100.940,169.200 101.600 C 169.200 102.260,169.020 102.800,168.800 102.800 C 168.580 102.800,168.400 103.340,168.400 104.000 C 168.400 104.660,168.220 105.200,168.000 105.200 C 167.780 105.200,167.600 105.920,167.600 106.800 C 167.600 107.680,167.420 108.400,167.200 108.400 C 166.980 108.400,166.800 108.940,166.800 109.600 C 166.800 110.260,166.620 110.800,166.400 110.800 C 166.180 110.800,166.000 111.509,166.000 112.376 C 166.000 113.243,165.820 114.064,165.600 114.200 C 165.380 114.336,165.200 115.247,165.200 116.224 C 165.200 117.201,165.020 118.000,164.800 118.000 C 164.580 118.000,164.400 118.799,164.400 119.776 C 164.400 120.753,164.220 121.664,164.000 121.800 C 163.780 121.936,163.600 123.016,163.600 124.200 C 163.600 125.384,163.420 126.464,163.200 126.600 C 162.980 126.736,162.800 127.917,162.800 129.224 C 162.800 130.541,162.622 131.600,162.400 131.600 C 162.167 131.600,162.000 132.925,162.000 134.776 C 162.000 136.523,161.820 138.064,161.600 138.200 C 161.365 138.345,161.200 140.671,161.200 143.824 C 161.200 147.141,161.047 149.200,160.800 149.200 C 160.253 149.200,160.253 172.262,160.800 172.600 C 161.036 172.746,161.200 175.130,161.200 178.400 C 161.200 181.670,161.364 184.054,161.600 184.200 C 161.820 184.336,162.000 185.956,162.000 187.800 C 162.000 189.644,162.180 191.264,162.400 191.400 C 162.620 191.536,162.800 192.717,162.800 194.024 C 162.800 195.341,162.978 196.400,163.200 196.400 C 163.422 196.400,163.600 197.467,163.600 198.800 C 163.600 200.133,163.778 201.200,164.000 201.200 C 164.220 201.200,164.400 202.100,164.400 203.200 C 164.400 204.300,164.580 205.200,164.800 205.200 C 165.020 205.200,165.200 206.100,165.200 207.200 C 165.200 208.300,165.380 209.200,165.600 209.200 C 165.820 209.200,166.000 209.920,166.000 210.800 C 166.000 211.680,166.180 212.400,166.400 212.400 C 166.620 212.400,166.800 213.019,166.800 213.776 C 166.800 214.533,166.980 215.264,167.200 215.400 C 167.420 215.536,167.600 216.177,167.600 216.824 C 167.600 217.471,167.780 218.000,168.000 218.000 C 168.220 218.000,168.400 218.619,168.400 219.376 C 168.400 220.133,168.580 220.864,168.800 221.000 C 169.020 221.136,169.200 221.597,169.200 222.024 C 169.200 223.979,170.290 222.769,173.905 216.800 C 175.437 214.270,179.260 208.060,182.400 203.000 C 185.540 197.940,189.320 191.820,190.801 189.400 C 192.281 186.980,197.502 178.520,202.403 170.600 C 216.503 147.812,216.227 148.286,220.066 140.305 C 220.250 139.923,220.400 137.819,220.400 135.629 C 220.400 133.406,220.577 131.538,220.800 131.400 C 221.021 131.264,221.200 129.474,221.200 127.410 C 221.200 124.785,221.348 123.617,221.696 123.501 C 222.053 123.382,221.997 123.140,221.496 122.639 C 221.113 122.256,220.800 121.800,220.800 121.625 C 220.800 121.450,219.907 120.935,218.815 120.482 C 215.209 118.983,215.361 115.600,219.034 115.600 C 222.096 115.600,222.800 115.148,222.800 113.186 C 222.800 112.314,222.980 111.600,223.200 111.600 C 223.420 111.600,223.600 110.700,223.600 109.600 C 223.600 108.500,223.780 107.600,224.000 107.600 C 224.220 107.600,224.400 106.700,224.400 105.600 C 224.400 104.500,224.580 103.600,224.800 103.600 C 225.020 103.600,225.200 102.891,225.200 102.024 C 225.200 101.157,225.380 100.336,225.600 100.200 C 225.820 100.064,226.000 99.153,226.000 98.176 C 226.000 97.199,226.180 96.400,226.400 96.400 C 226.620 96.400,226.800 95.860,226.800 95.200 C 226.800 94.540,226.980 94.000,227.200 94.000 C 227.420 94.000,227.600 93.460,227.600 92.800 C 227.600 92.140,227.780 91.600,228.000 91.600 C 228.220 91.600,228.400 91.060,228.400 90.400 C 228.400 89.740,228.580 89.200,228.800 89.200 C 229.020 89.200,229.200 88.660,229.200 88.000 C 229.200 87.340,229.380 86.800,229.600 86.800 C 229.820 86.800,230.000 86.260,230.000 85.600 C 230.000 84.940,230.180 84.400,230.400 84.400 C 230.620 84.400,230.800 84.040,230.800 83.600 C 230.800 83.160,230.980 82.800,231.200 82.800 C 231.420 82.800,231.600 82.528,231.600 82.195 C 231.600 81.862,231.759 81.277,231.954 80.895 C 232.304 80.209,234.488 75.846,235.354 74.103 C 235.599 73.610,235.935 73.205,236.100 73.203 C 236.265 73.201,236.400 72.840,236.400 72.400 C 236.400 71.960,236.550 71.600,236.732 71.600 C 236.915 71.600,237.319 71.105,237.630 70.500 C 237.940 69.895,238.511 69.109,238.897 68.753 C 239.284 68.397,239.600 67.888,239.600 67.622 C 239.600 67.355,240.320 66.446,241.200 65.600 C 242.080 64.754,242.800 63.890,242.800 63.678 C 242.800 63.117,247.854 58.000,248.409 58.000 C 248.668 58.000,249.356 57.505,249.940 56.900 C 250.523 56.295,251.495 55.545,252.100 55.232 C 252.705 54.920,253.200 54.515,253.200 54.332 C 253.200 54.150,253.520 54.000,253.912 54.000 C 254.303 54.000,254.883 53.640,255.200 53.200 C 255.517 52.760,256.097 52.400,256.488 52.400 C 256.880 52.400,257.200 52.220,257.200 52.000 C 257.200 51.780,257.560 51.600,258.000 51.600 C 258.440 51.600,258.800 51.420,258.800 51.200 C 258.800 50.980,259.160 50.800,259.600 50.800 C 260.040 50.800,260.400 50.620,260.400 50.400 C 260.400 50.180,260.940 50.000,261.600 50.000 C 262.260 50.000,262.800 49.820,262.800 49.600 C 262.800 49.380,263.160 49.200,263.600 49.200 C 264.040 49.200,264.400 49.020,264.400 48.800 C 264.400 48.580,265.019 48.400,265.776 48.400 C 266.533 48.400,267.264 48.220,267.400 48.000 C 267.536 47.780,268.177 47.600,268.824 47.600 C 269.471 47.600,270.000 47.420,270.000 47.200 C 270.000 46.980,270.900 46.800,272.000 46.800 C 273.100 46.800,274.000 46.620,274.000 46.400 C 274.000 46.154,275.989 46.000,279.167 46.000 C 282.909 46.000,284.398 45.862,284.567 45.500 C 284.753 45.100,284.847 45.100,285.033 45.500 C 285.197 45.851,286.451 46.000,289.233 46.000 C 291.611 46.000,293.200 46.160,293.200 46.400 C 293.200 46.620,294.100 46.800,295.200 46.800 C 296.300 46.800,297.200 46.980,297.200 47.200 C 297.200 47.420,297.549 47.600,297.976 47.600 C 298.403 47.600,298.864 47.780,299.000 48.000 C 299.136 48.220,299.687 48.400,300.224 48.400 C 300.761 48.400,301.200 48.580,301.200 48.800 C 301.200 49.020,301.616 49.200,302.125 49.200 C 302.633 49.200,303.436 49.560,303.908 50.000 C 304.380 50.440,305.044 50.800,305.383 50.800 C 305.722 50.800,306.000 50.980,306.000 51.200 C 306.000 51.420,306.269 51.600,306.598 51.600 C 306.927 51.600,308.115 52.500,309.239 53.600 C 310.362 54.700,311.502 55.600,311.773 55.600 C 312.043 55.600,312.520 56.095,312.832 56.700 C 313.145 57.305,314.075 58.461,314.900 59.269 C 315.725 60.076,316.400 60.939,316.400 61.185 C 316.400 61.432,316.760 62.020,317.200 62.492 C 317.640 62.964,318.000 63.587,318.000 63.875 C 318.000 64.164,318.180 64.400,318.400 64.400 C 318.620 64.400,318.800 64.760,318.800 65.200 C 318.800 65.640,318.980 66.000,319.200 66.000 C 319.420 66.000,319.600 66.360,319.600 66.800 C 319.600 67.240,319.780 67.600,320.000 67.600 C 320.220 67.600,320.400 67.949,320.400 68.376 C 320.400 68.803,320.580 69.264,320.800 69.400 C 321.020 69.536,321.200 70.087,321.200 70.624 C 321.200 71.161,321.380 71.600,321.600 71.600 C 321.820 71.600,322.000 72.140,322.000 72.800 C 322.000 73.460,322.180 74.000,322.400 74.000 C 322.620 74.000,322.800 74.540,322.800 75.200 C 322.800 75.860,322.980 76.400,323.200 76.400 C 323.420 76.400,323.600 77.300,323.600 78.400 C 323.600 79.500,323.780 80.400,324.000 80.400 C 324.222 80.400,324.400 81.467,324.400 82.800 C 324.400 84.133,324.578 85.200,324.800 85.200 C 325.047 85.200,325.200 87.276,325.200 90.629 C 325.200 94.800,325.332 96.189,325.771 96.629 C 326.437 97.295,331.600 97.446,331.600 96.800 C 331.600 96.563,333.067 96.400,335.200 96.400 C 337.333 96.400,338.800 96.237,338.800 96.000 C 338.800 95.780,339.779 95.600,340.976 95.600 C 342.173 95.600,343.264 95.420,343.400 95.200 C 343.536 94.980,344.357 94.800,345.224 94.800 C 346.091 94.800,346.800 94.620,346.800 94.400 C 346.800 94.180,347.340 94.000,348.000 94.000 C 348.660 94.000,349.200 93.820,349.200 93.600 C 349.200 93.380,349.560 93.200,350.000 93.200 C 350.440 93.200,350.800 93.020,350.800 92.800 C 350.800 92.580,351.340 92.400,352.000 92.400 C 352.660 92.400,353.200 92.220,353.200 92.000 C 353.200 91.780,353.436 91.600,353.725 91.600 C 354.013 91.600,354.636 91.240,355.108 90.800 C 355.580 90.360,356.204 90.000,356.495 90.000 C 356.786 90.000,357.283 89.640,357.600 89.200 C 357.917 88.760,358.410 88.400,358.695 88.400 C 359.370 88.400,365.200 82.570,365.200 81.895 C 365.200 81.610,365.560 81.117,366.000 80.800 C 366.440 80.483,366.800 79.903,366.800 79.512 C 366.800 79.120,366.980 78.800,367.200 78.800 C 367.420 78.800,367.600 78.440,367.600 78.000 C 367.600 77.560,367.780 77.200,368.000 77.200 C 368.220 77.200,368.400 76.840,368.400 76.400 C 368.400 75.960,368.580 75.600,368.800 75.600 C 369.020 75.600,369.200 75.060,369.200 74.400 C 369.200 73.740,369.380 73.200,369.600 73.200 C 369.820 73.200,370.000 72.311,370.000 71.224 C 370.000 70.137,370.180 69.136,370.400 69.000 C 370.620 68.864,370.800 67.334,370.800 65.600 C 370.800 63.866,370.620 62.336,370.400 62.200 C 370.180 62.064,370.000 60.804,370.000 59.400 C 370.000 57.996,369.820 56.736,369.600 56.600 C 369.380 56.464,369.200 55.924,369.200 55.400 C 369.200 54.876,369.020 54.336,368.800 54.200 C 368.580 54.064,368.400 53.547,368.400 53.052 C 368.400 52.556,368.040 51.764,367.600 51.292 C 367.160 50.820,366.800 50.156,366.800 49.817 C 366.800 49.478,366.620 49.200,366.400 49.200 C 366.180 49.200,366.000 48.840,366.000 48.400 C 366.000 47.960,365.820 47.600,365.600 47.600 C 365.380 47.600,365.200 47.316,365.200 46.969 C 365.200 46.621,364.525 45.676,363.700 44.869 C 362.875 44.061,361.945 42.905,361.632 42.300 C 361.320 41.695,360.841 41.200,360.567 41.200 C 360.294 41.200,358.973 40.120,357.632 38.800 C 356.292 37.480,354.926 36.400,354.597 36.400 C 354.269 36.400,354.000 36.250,354.000 36.068 C 354.000 35.885,353.505 35.480,352.900 35.168 C 352.295 34.855,351.451 34.285,351.025 33.900 C 350.598 33.515,350.013 33.200,349.725 33.200 C 349.436 33.200,349.200 33.020,349.200 32.800 C 349.200 32.580,348.840 32.400,348.400 32.400 C 347.960 32.400,347.600 32.220,347.600 32.000 C 347.600 31.780,347.240 31.600,346.800 31.600 C 346.360 31.600,346.000 31.420,346.000 31.200 C 346.000 30.980,345.651 30.800,345.224 30.800 C 344.797 30.800,344.336 30.620,344.200 30.400 C 344.064 30.180,343.513 30.000,342.976 30.000 C 342.439 30.000,342.000 29.820,342.000 29.600 C 342.000 29.380,341.640 29.200,341.200 29.200 C 340.760 29.200,340.400 29.020,340.400 28.800 C 340.400 28.580,339.860 28.400,339.200 28.400 C 338.540 28.400,338.000 28.220,338.000 28.000 C 338.000 27.780,337.651 27.600,337.224 27.600 C 336.797 27.600,336.336 27.420,336.200 27.200 C 336.064 26.980,335.513 26.800,334.976 26.800 C 334.439 26.800,334.000 26.620,334.000 26.400 C 334.000 26.180,333.280 26.000,332.400 26.000 C 331.520 26.000,330.800 25.820,330.800 25.600 C 330.800 25.380,330.091 25.200,329.224 25.200 C 328.357 25.200,327.536 25.020,327.400 24.800 C 327.264 24.580,326.353 24.400,325.376 24.400 C 324.399 24.400,323.600 24.220,323.600 24.000 C 323.600 23.780,322.880 23.600,322.000 23.600 C 321.120 23.600,320.400 23.420,320.400 23.200 C 320.400 22.971,319.200 22.800,317.600 22.800 C 316.000 22.800,314.800 22.629,314.800 22.400 C 314.800 22.171,313.600 22.000,312.000 22.000 C 310.400 22.000,309.200 21.829,309.200 21.600 C 309.200 21.354,307.200 21.200,304.000 21.200 C 300.800 21.200,298.800 21.046,298.800 20.800 C 298.800 20.542,294.400 20.400,286.400 20.400 C 278.400 20.400,274.000 20.542,274.000 20.800 M288.267 169.467 C 287.935 169.799,287.921 187.866,288.252 189.100 C 288.482 189.956,288.685 190.000,292.447 190.000 C 294.816 190.000,296.400 190.160,296.400 190.400 C 296.400 190.620,297.019 190.800,297.776 190.800 C 298.533 190.800,299.264 190.980,299.400 191.200 C 299.536 191.420,300.177 191.600,300.824 191.600 C 301.471 191.600,302.000 191.780,302.000 192.000 C 302.000 192.220,302.273 192.400,302.607 192.400 C 303.385 192.400,308.400 197.395,308.400 198.169 C 308.400 198.490,308.580 198.864,308.800 199.000 C 309.020 199.136,309.200 199.687,309.200 200.224 C 309.200 200.761,309.380 201.200,309.600 201.200 C 309.820 201.200,310.000 201.920,310.000 202.800 C 310.000 203.680,310.180 204.400,310.400 204.400 C 310.622 204.400,310.800 205.467,310.800 206.800 C 310.800 208.133,310.978 209.200,311.200 209.200 C 311.463 209.200,311.600 219.943,311.600 240.629 C 311.600 275.331,311.768 273.200,309.029 273.200 C 308.243 273.200,307.600 273.380,307.600 273.600 C 307.600 273.820,307.060 274.000,306.400 274.000 C 305.740 274.000,305.200 274.180,305.200 274.400 C 305.200 274.633,303.867 274.800,302.000 274.800 C 300.133 274.800,298.800 274.967,298.800 275.200 C 298.800 275.446,296.814 275.600,293.643 275.600 C 289.309 275.600,288.447 275.701,288.243 276.233 C 287.927 277.055,287.936 299.920,288.252 301.100 C 288.489 301.985,290.000 302.417,290.000 301.600 C 290.000 301.349,292.533 301.200,296.800 301.200 C 301.067 301.200,303.600 301.051,303.600 300.800 C 303.600 300.563,305.067 300.400,307.200 300.400 C 309.333 300.400,310.800 300.237,310.800 300.000 C 310.800 299.771,312.000 299.600,313.600 299.600 C 315.200 299.600,316.400 299.429,316.400 299.200 C 316.400 298.980,317.300 298.800,318.400 298.800 C 319.500 298.800,320.400 298.620,320.400 298.400 C 320.400 298.180,321.199 298.000,322.176 298.000 C 323.153 298.000,324.064 297.820,324.200 297.600 C 324.336 297.380,325.157 297.200,326.024 297.200 C 326.891 297.200,327.600 297.020,327.600 296.800 C 327.600 296.580,328.320 296.400,329.200 296.400 C 330.080 296.400,330.800 296.220,330.800 296.000 C 330.800 295.780,331.520 295.600,332.400 295.600 C 333.280 295.600,334.000 295.420,334.000 295.200 C 334.000 294.980,334.619 294.800,335.376 294.800 C 336.133 294.800,336.864 294.620,337.000 294.400 C 337.136 294.180,337.599 294.000,338.029 294.000 C 338.459 294.000,339.168 293.820,339.605 293.600 C 340.042 293.380,340.758 293.020,341.195 292.800 C 341.632 292.580,342.352 292.400,342.795 292.400 C 343.238 292.400,343.600 292.220,343.600 292.000 C 343.600 291.780,344.140 291.600,344.800 291.600 C 345.460 291.600,346.000 291.420,346.000 291.200 C 346.000 290.980,346.540 290.800,347.200 290.800 C 347.860 290.800,348.400 290.620,348.400 290.400 C 348.400 290.180,348.749 290.000,349.176 290.000 C 349.603 290.000,350.064 289.820,350.200 289.600 C 350.336 289.380,350.887 289.200,351.424 289.200 C 351.961 289.200,352.400 289.020,352.400 288.800 C 352.400 288.580,352.760 288.400,353.200 288.400 C 353.640 288.400,354.000 288.220,354.000 288.000 C 354.000 287.780,354.439 287.600,354.976 287.600 C 355.513 287.600,356.064 287.420,356.200 287.200 C 356.336 286.980,356.797 286.800,357.224 286.800 C 357.651 286.800,358.000 286.620,358.000 286.400 C 358.000 286.180,358.360 286.000,358.800 286.000 C 359.240 286.000,359.600 285.820,359.600 285.600 C 359.600 285.380,359.960 285.200,360.400 285.200 C 360.840 285.200,361.200 285.020,361.200 284.800 C 361.200 284.580,361.560 284.400,362.000 284.400 C 362.440 284.400,362.800 284.220,362.800 284.000 C 362.800 283.780,363.239 283.600,363.776 283.600 C 364.313 283.600,364.864 283.420,365.000 283.200 C 365.136 282.980,365.519 282.800,365.852 282.800 C 367.647 282.800,367.600 283.822,367.600 245.052 C 367.600 221.080,367.738 208.362,368.000 208.200 C 368.220 208.064,368.400 206.894,368.400 205.600 C 368.400 204.306,368.580 203.136,368.800 203.000 C 369.020 202.864,369.200 202.223,369.200 201.576 C 369.200 200.929,369.380 200.400,369.600 200.400 C 369.820 200.400,370.000 199.860,370.000 199.200 C 370.000 198.540,370.180 198.000,370.400 198.000 C 370.620 198.000,370.800 197.680,370.800 197.288 C 370.800 196.897,371.160 196.317,371.600 196.000 C 372.040 195.683,372.400 195.185,372.400 194.894 C 372.400 194.163,374.226 192.400,374.982 192.400 C 375.322 192.400,375.600 192.220,375.600 192.000 C 375.600 191.780,375.960 191.600,376.400 191.600 C 376.840 191.600,377.200 191.420,377.200 191.200 C 377.200 190.980,377.740 190.800,378.400 190.800 C 379.060 190.800,379.600 190.620,379.600 190.400 C 379.600 190.156,381.467 190.000,384.400 190.000 L 389.200 190.000 389.200 179.600 L 389.200 169.200 338.867 169.200 C 311.183 169.200,288.413 169.320,288.267 169.467 M219.128 183.500 C 218.801 183.885,217.209 186.360,215.591 189.000 C 213.973 191.640,211.040 196.410,209.073 199.600 C 207.106 202.790,204.283 207.380,202.800 209.800 C 201.317 212.220,198.439 216.900,196.403 220.200 C 179.484 247.633,179.060 248.400,180.800 248.400 C 181.020 248.400,181.200 248.760,181.200 249.200 C 181.200 249.640,181.350 250.000,181.532 250.000 C 181.715 250.000,182.120 250.495,182.432 251.100 C 182.745 251.705,183.315 252.549,183.700 252.975 C 184.085 253.402,184.400 253.987,184.400 254.275 C 184.400 254.564,184.580 254.800,184.800 254.800 C 185.020 254.800,185.200 255.043,185.200 255.341 C 185.200 255.638,185.740 256.446,186.400 257.137 C 187.060 257.828,187.600 258.553,187.600 258.748 C 187.600 258.944,188.320 259.845,189.200 260.752 C 190.080 261.659,190.800 262.582,190.800 262.803 C 190.800 263.328,203.870 276.400,204.395 276.400 C 204.616 276.400,205.715 277.300,206.839 278.400 C 207.962 279.500,209.093 280.400,209.352 280.400 C 209.611 280.400,210.083 280.760,210.400 281.200 C 210.717 281.640,211.257 282.000,211.600 282.000 C 211.943 282.000,212.483 282.360,212.800 282.800 C 213.117 283.240,213.657 283.600,214.000 283.600 C 214.343 283.600,214.883 283.960,215.200 284.400 C 215.517 284.840,216.014 285.200,216.305 285.200 C 216.596 285.200,217.220 285.560,217.692 286.000 C 218.164 286.440,218.787 286.800,219.075 286.800 C 219.364 286.800,219.600 286.980,219.600 287.200 C 219.600 287.420,219.960 287.600,220.400 287.600 C 220.840 287.600,221.200 287.780,221.200 288.000 C 221.200 288.220,221.560 288.400,222.000 288.400 C 222.440 288.400,222.800 288.580,222.800 288.800 C 222.800 289.020,223.160 289.200,223.600 289.200 C 224.040 289.200,224.400 289.380,224.400 289.600 C 224.400 289.820,224.760 290.000,225.200 290.000 C 225.640 290.000,226.000 290.180,226.000 290.400 C 226.000 290.620,226.360 290.800,226.800 290.800 C 227.240 290.800,227.600 290.980,227.600 291.200 C 227.600 291.420,227.960 291.600,228.400 291.600 C 228.840 291.600,229.200 291.780,229.200 292.000 C 229.200 292.220,229.740 292.400,230.400 292.400 C 231.060 292.400,231.600 292.580,231.600 292.800 C 231.600 293.020,232.039 293.200,232.576 293.200 C 233.113 293.200,233.664 293.380,233.800 293.600 C 233.936 293.820,234.397 294.000,234.824 294.000 C 235.251 294.000,235.600 294.180,235.600 294.400 C 235.600 294.620,236.140 294.800,236.800 294.800 C 237.460 294.800,238.000 294.980,238.000 295.200 C 238.000 295.420,238.540 295.600,239.200 295.600 C 239.860 295.600,240.400 295.780,240.400 296.000 C 240.400 296.220,240.929 296.400,241.575 296.400 C 243.246 296.400,243.280 295.918,243.130 274.554 L 243.000 256.107 241.700 254.893 C 240.985 254.225,240.400 253.463,240.400 253.200 C 240.400 252.937,239.860 252.217,239.200 251.600 C 238.540 250.983,238.000 250.191,238.000 249.840 C 238.000 249.488,237.820 249.200,237.600 249.200 C 237.380 249.200,237.200 248.880,237.200 248.488 C 237.200 248.097,236.840 247.517,236.400 247.200 C 235.960 246.883,235.600 246.303,235.600 245.912 C 235.600 245.520,235.420 245.200,235.200 245.200 C 234.980 245.200,234.800 244.840,234.800 244.400 C 234.800 243.960,234.620 243.600,234.400 243.600 C 234.180 243.600,234.000 243.240,234.000 242.800 C 234.000 242.360,233.820 242.000,233.600 242.000 C 233.380 242.000,233.200 241.640,233.200 241.200 C 233.200 240.760,233.020 240.400,232.800 240.400 C 232.580 240.400,232.400 240.040,232.400 239.600 C 232.400 239.160,232.220 238.800,232.000 238.800 C 231.780 238.800,231.600 238.440,231.600 238.000 C 231.600 237.560,231.420 237.200,231.200 237.200 C 230.980 237.200,230.800 236.838,230.800 236.395 C 230.800 235.952,230.620 235.232,230.400 234.795 C 230.180 234.358,229.820 233.642,229.600 233.205 C 229.380 232.768,229.200 232.048,229.200 231.605 C 229.200 231.162,229.020 230.800,228.800 230.800 C 228.580 230.800,228.400 230.260,228.400 229.600 C 228.400 228.940,228.220 228.400,228.000 228.400 C 227.780 228.400,227.600 227.781,227.600 227.024 C 227.600 226.267,227.420 225.536,227.200 225.400 C 226.980 225.264,226.800 224.623,226.800 223.976 C 226.800 223.329,226.620 222.800,226.400 222.800 C 226.180 222.800,226.000 222.080,226.000 221.200 C 226.000 220.320,225.820 219.600,225.600 219.600 C 225.380 219.600,225.200 218.880,225.200 218.000 C 225.200 217.120,225.020 216.400,224.800 216.400 C 224.580 216.400,224.400 215.500,224.400 214.400 C 224.400 213.300,224.220 212.400,224.000 212.400 C 223.780 212.400,223.600 211.421,223.600 210.224 C 223.600 209.027,223.420 207.936,223.200 207.800 C 222.980 207.664,222.800 206.584,222.800 205.400 C 222.800 204.216,222.620 203.136,222.400 203.000 C 222.180 202.864,222.000 201.514,222.000 200.000 C 222.000 198.486,221.820 197.136,221.600 197.000 C 221.379 196.863,221.200 195.063,221.200 192.976 C 221.200 190.725,221.038 189.200,220.800 189.200 C 220.567 189.200,220.400 187.867,220.400 186.000 C 220.400 182.723,220.171 182.274,219.128 183.500 " stroke="none" fill="#fbd33c" fill-rule="evenodd"></path><path id="path1" d="M21.200 117.600 L 21.200 120.400 23.200 120.400 C 24.300 120.400,25.200 120.580,25.200 120.800 C 25.200 121.020,25.740 121.200,26.400 121.200 C 27.060 121.200,27.600 121.380,27.600 121.600 C 27.600 121.820,28.140 122.000,28.800 122.000 C 29.460 122.000,30.000 122.180,30.000 122.400 C 30.000 122.620,30.360 122.800,30.800 122.800 C 31.240 122.800,31.600 122.980,31.600 123.200 C 31.600 123.420,31.920 123.600,32.312 123.600 C 32.703 123.600,33.283 123.960,33.600 124.400 C 33.917 124.840,34.412 125.200,34.699 125.200 C 35.278 125.200,38.800 128.575,38.800 129.130 C 38.800 129.323,39.295 130.016,39.900 130.670 C 41.246 132.125,42.000 133.391,42.000 134.195 C 42.000 134.528,42.180 134.800,42.400 134.800 C 42.620 134.800,42.800 135.160,42.800 135.600 C 42.800 136.040,42.980 136.400,43.200 136.400 C 43.420 136.400,43.600 136.940,43.600 137.600 C 43.600 138.260,43.780 138.800,44.000 138.800 C 44.220 138.800,44.400 139.239,44.400 139.776 C 44.400 140.313,44.580 140.864,44.800 141.000 C 45.020 141.136,45.200 141.676,45.200 142.200 C 45.200 142.724,45.380 143.264,45.600 143.400 C 45.820 143.536,46.000 144.717,46.000 146.024 C 46.000 147.341,46.178 148.400,46.400 148.400 C 46.641 148.400,46.800 150.059,46.800 152.576 C 46.800 154.929,46.975 156.861,47.200 157.000 C 47.754 157.343,47.754 341.057,47.200 341.400 C 46.975 341.539,46.800 343.471,46.800 345.824 C 46.800 348.341,46.641 350.000,46.400 350.000 C 46.180 350.000,46.000 351.001,46.000 352.224 C 46.000 353.447,45.856 354.358,45.680 354.249 C 45.504 354.141,45.316 354.715,45.263 355.526 C 45.209 356.337,44.993 357.060,44.782 357.133 C 44.572 357.207,44.400 357.601,44.400 358.010 C 44.400 358.418,44.220 358.864,44.000 359.000 C 43.780 359.136,43.600 359.561,43.600 359.944 C 43.600 360.819,42.701 362.793,42.300 362.797 C 42.135 362.799,42.000 363.035,42.000 363.322 C 42.000 363.609,41.361 364.541,40.580 365.394 C 39.799 366.247,38.860 367.452,38.494 368.072 C 38.127 368.692,37.623 369.200,37.373 369.200 C 37.123 369.200,36.354 369.740,35.663 370.400 C 34.972 371.060,34.136 371.600,33.804 371.600 C 33.472 371.600,33.199 371.735,33.197 371.900 C 33.193 372.259,31.256 373.200,30.520 373.200 C 30.234 373.200,30.000 373.380,30.000 373.600 C 30.000 373.820,29.460 374.000,28.800 374.000 C 28.140 374.000,27.600 374.180,27.600 374.400 C 27.600 374.620,26.700 374.800,25.600 374.800 C 24.500 374.800,23.600 374.980,23.600 375.200 C 23.600 375.420,23.060 375.600,22.400 375.600 L 21.200 375.600 21.200 378.000 L 21.200 380.400 61.200 380.400 L 101.200 380.400 101.200 378.000 L 101.200 375.600 99.600 375.600 C 98.720 375.600,98.000 375.420,98.000 375.200 C 98.000 374.980,97.280 374.800,96.400 374.800 C 95.520 374.800,94.800 374.620,94.800 374.400 C 94.800 374.180,94.260 374.000,93.600 374.000 C 92.940 374.000,92.400 373.820,92.400 373.600 C 92.400 373.380,91.860 373.200,91.200 373.200 C 90.540 373.200,90.000 373.020,90.000 372.800 C 90.000 372.580,89.719 372.400,89.376 372.400 C 89.007 372.400,88.869 372.212,89.038 371.938 C 89.212 371.657,89.148 371.585,88.875 371.754 C 88.354 372.076,81.686 365.566,80.830 363.900 C 80.519 363.295,80.115 362.800,79.932 362.800 C 79.750 362.800,79.600 362.440,79.600 362.000 C 79.600 361.560,79.420 361.200,79.200 361.200 C 78.980 361.200,78.800 360.660,78.800 360.000 C 78.800 359.340,78.620 358.800,78.400 358.800 C 78.180 358.800,78.000 358.260,78.000 357.600 C 78.000 356.940,77.820 356.400,77.600 356.400 C 77.380 356.400,77.200 355.781,77.200 355.024 C 77.200 354.267,77.020 353.536,76.800 353.400 C 76.580 353.264,76.400 352.263,76.400 351.176 C 76.400 350.089,76.220 349.200,76.000 349.200 C 75.752 349.200,75.600 347.008,75.600 343.424 C 75.600 340.004,75.437 337.546,75.200 337.400 C 74.727 337.107,74.627 146.798,75.100 146.803 C 75.459 146.807,76.400 148.744,76.400 149.480 C 76.400 149.766,76.580 150.000,76.800 150.000 C 77.020 150.000,77.200 150.236,77.200 150.525 C 77.200 150.813,77.560 151.436,78.000 151.908 C 78.440 152.380,78.800 153.044,78.800 153.383 C 78.800 153.722,78.980 154.000,79.200 154.000 C 79.420 154.000,79.600 154.360,79.600 154.800 C 79.600 155.240,79.780 155.600,80.000 155.600 C 80.220 155.600,80.400 155.836,80.400 156.125 C 80.400 156.413,80.760 157.036,81.200 157.508 C 81.640 157.980,82.000 158.644,82.000 158.983 C 82.000 159.322,82.180 159.600,82.400 159.600 C 82.620 159.600,82.800 159.960,82.800 160.400 C 82.800 160.840,82.980 161.200,83.200 161.200 C 83.420 161.200,83.600 161.520,83.600 161.912 C 83.600 162.303,83.960 162.883,84.400 163.200 C 84.840 163.517,85.200 164.097,85.200 164.488 C 85.200 164.880,85.380 165.200,85.600 165.200 C 85.820 165.200,86.000 165.560,86.000 166.000 C 86.000 166.440,86.152 166.800,86.337 166.800 C 86.523 166.800,87.108 167.655,87.637 168.700 C 88.167 169.745,88.735 170.660,88.900 170.733 C 89.065 170.807,89.200 171.129,89.200 171.450 C 89.200 171.771,89.560 172.420,90.000 172.892 C 90.440 173.364,90.800 174.043,90.800 174.400 C 90.800 174.757,91.115 175.407,91.500 175.845 C 92.489 176.970,93.200 178.286,93.200 178.995 C 93.200 179.328,93.380 179.600,93.600 179.600 C 93.820 179.600,94.000 179.836,94.000 180.125 C 94.000 180.413,94.315 181.007,94.700 181.445 C 95.689 182.570,96.400 183.886,96.400 184.595 C 96.400 184.928,96.580 185.200,96.800 185.200 C 97.020 185.200,97.200 185.436,97.200 185.725 C 97.200 186.013,97.560 186.636,98.000 187.108 C 98.440 187.580,98.800 188.244,98.800 188.583 C 98.800 188.922,98.980 189.200,99.200 189.200 C 99.420 189.200,99.600 189.560,99.600 190.000 C 99.600 190.440,99.780 190.800,100.000 190.800 C 100.220 190.800,100.400 191.036,100.400 191.325 C 100.400 191.613,100.760 192.236,101.200 192.708 C 101.640 193.180,102.000 193.844,102.000 194.183 C 102.000 194.522,102.180 194.800,102.400 194.800 C 102.620 194.800,102.800 195.160,102.800 195.600 C 102.800 196.040,102.980 196.400,103.200 196.400 C 103.420 196.400,103.600 196.678,103.600 197.017 C 103.600 197.356,103.960 198.020,104.400 198.492 C 104.840 198.964,105.200 199.587,105.200 199.875 C 105.200 200.164,105.380 200.400,105.600 200.400 C 105.820 200.400,106.000 200.678,106.000 201.017 C 106.000 201.356,106.360 202.020,106.800 202.492 C 107.240 202.964,107.600 203.643,107.600 204.000 C 107.600 204.357,107.960 205.036,108.400 205.508 C 108.840 205.980,109.200 206.644,109.200 206.983 C 109.200 207.322,109.380 207.600,109.600 207.600 C 109.820 207.600,110.000 207.960,110.000 208.400 C 110.000 208.840,110.180 209.200,110.400 209.200 C 110.620 209.200,110.800 209.436,110.800 209.725 C 110.800 210.013,111.115 210.607,111.500 211.045 C 112.489 212.170,113.200 213.486,113.200 214.195 C 113.200 214.528,113.380 214.800,113.600 214.800 C 113.820 214.800,114.000 215.036,114.000 215.325 C 114.000 215.613,114.360 216.236,114.800 216.708 C 115.240 217.180,115.600 217.844,115.600 218.183 C 115.600 218.522,115.780 218.800,116.000 218.800 C 116.220 218.800,116.400 219.160,116.400 219.600 C 116.400 220.040,116.580 220.400,116.800 220.400 C 117.020 220.400,117.200 220.636,117.200 220.925 C 117.200 221.213,117.560 221.836,118.000 222.308 C 118.440 222.780,118.800 223.444,118.800 223.783 C 118.800 224.122,118.980 224.400,119.200 224.400 C 119.420 224.400,119.600 224.760,119.600 225.200 C 119.600 225.640,119.780 226.000,120.000 226.000 C 120.220 226.000,120.400 226.278,120.400 226.617 C 120.400 226.956,120.760 227.620,121.200 228.092 C 121.640 228.564,122.000 229.187,122.000 229.475 C 122.000 229.764,122.180 230.000,122.400 230.000 C 122.620 230.000,122.800 230.360,122.800 230.800 C 122.800 231.240,122.952 231.600,123.137 231.600 C 123.323 231.600,123.908 232.455,124.437 233.500 C 124.967 234.545,125.535 235.460,125.700 235.533 C 125.865 235.607,126.000 236.012,126.000 236.433 C 126.000 236.855,126.180 237.200,126.400 237.200 C 126.620 237.200,126.800 237.560,126.800 238.000 C 126.800 238.440,126.980 238.800,127.200 238.800 C 127.420 238.800,127.600 239.036,127.600 239.325 C 127.600 239.613,127.915 240.207,128.300 240.645 C 129.289 241.770,130.000 243.086,130.000 243.795 C 130.000 244.128,130.180 244.400,130.400 244.400 C 130.620 244.400,130.800 244.636,130.800 244.925 C 130.800 245.213,131.160 245.836,131.600 246.308 C 132.040 246.780,132.400 247.444,132.400 247.783 C 132.400 248.122,132.580 248.400,132.800 248.400 C 133.020 248.400,133.200 248.760,133.200 249.200 C 133.200 249.640,133.380 250.000,133.600 250.000 C 133.820 250.000,134.000 250.236,134.000 250.525 C 134.000 250.813,134.360 251.436,134.800 251.908 C 135.240 252.380,135.600 253.044,135.600 253.383 C 135.600 253.722,135.780 254.000,136.000 254.000 C 136.220 254.000,136.400 254.360,136.400 254.800 C 136.400 255.240,136.580 255.600,136.800 255.600 C 137.020 255.600,137.200 255.920,137.200 256.312 C 137.200 256.703,137.560 257.283,138.000 257.600 C 138.440 257.917,138.800 258.497,138.800 258.888 C 138.800 259.280,138.980 259.600,139.200 259.600 C 139.420 259.600,139.600 259.960,139.600 260.400 C 139.600 260.840,139.780 261.200,140.000 261.200 C 140.220 261.200,140.400 261.478,140.400 261.817 C 140.400 262.156,140.760 262.820,141.200 263.292 C 141.640 263.764,142.000 264.387,142.000 264.675 C 142.000 264.964,142.180 265.200,142.400 265.200 C 142.620 265.200,142.800 265.478,142.800 265.817 C 142.800 266.156,143.160 266.820,143.600 267.292 C 144.040 267.764,144.400 268.443,144.400 268.800 C 144.400 269.157,144.760 269.836,145.200 270.308 C 145.640 270.780,146.000 271.444,146.000 271.783 C 146.000 272.122,146.180 272.400,146.400 272.400 C 146.620 272.400,146.800 272.760,146.800 273.200 C 146.800 273.640,146.980 274.000,147.200 274.000 C 147.420 274.000,147.600 274.236,147.600 274.525 C 147.600 274.813,147.915 275.407,148.300 275.845 C 149.289 276.970,150.000 278.286,150.000 278.995 C 150.000 279.328,150.180 279.600,150.400 279.600 C 150.620 279.600,150.800 279.836,150.800 280.125 C 150.800 280.413,151.160 281.036,151.600 281.508 C 152.040 281.980,152.400 282.644,152.400 282.983 C 152.400 283.322,152.580 283.600,152.800 283.600 C 153.020 283.600,153.200 283.960,153.200 284.400 C 153.200 284.840,153.359 285.200,153.553 285.200 C 153.748 285.200,154.001 285.560,154.116 286.000 C 154.478 287.385,157.200 286.689,157.200 285.212 C 157.200 284.967,157.560 284.380,158.000 283.908 C 158.440 283.436,158.800 282.813,158.800 282.525 C 158.800 282.236,158.980 282.000,159.200 282.000 C 159.420 282.000,159.600 281.722,159.600 281.383 C 159.600 281.044,159.960 280.380,160.400 279.908 C 160.840 279.436,161.200 278.813,161.200 278.525 C 161.200 278.236,161.380 278.000,161.600 278.000 C 161.820 278.000,162.000 277.680,162.000 277.288 C 162.000 276.897,162.360 276.317,162.800 276.000 C 163.240 275.683,163.600 275.186,163.600 274.895 C 163.600 274.604,163.960 273.980,164.400 273.508 C 164.840 273.036,165.200 272.413,165.200 272.125 C 165.200 271.836,165.380 271.600,165.600 271.600 C 165.820 271.600,166.000 271.322,166.000 270.983 C 166.000 270.644,166.360 269.980,166.800 269.508 C 167.240 269.036,167.600 268.413,167.600 268.125 C 167.600 267.836,167.780 267.600,168.000 267.600 C 168.220 267.600,168.400 267.280,168.400 266.888 C 168.400 266.497,168.760 265.917,169.200 265.600 C 169.640 265.283,170.000 264.786,170.000 264.495 C 170.000 264.204,170.360 263.580,170.800 263.108 C 171.240 262.636,171.600 262.013,171.600 261.725 C 171.600 261.436,171.780 261.200,172.000 261.200 C 172.220 261.200,172.400 260.922,172.400 260.583 C 172.400 260.244,172.760 259.580,173.200 259.108 C 173.640 258.636,174.000 258.013,174.000 257.725 C 174.000 257.436,174.180 257.200,174.400 257.200 C 174.620 257.200,174.800 256.880,174.800 256.488 C 174.800 256.097,175.160 255.517,175.600 255.200 C 176.040 254.883,176.400 254.386,176.400 254.095 C 176.400 253.804,176.760 253.180,177.200 252.708 C 177.640 252.236,178.000 251.613,178.000 251.325 C 178.000 251.036,178.180 250.800,178.400 250.800 C 178.620 250.800,178.800 250.522,178.800 250.183 C 178.800 249.844,179.150 249.191,179.577 248.733 C 180.080 248.193,180.335 247.388,180.301 246.449 C 180.248 244.977,180.391 244.723,189.794 229.600 C 190.957 227.730,196.721 218.370,202.603 208.800 C 220.775 179.236,219.225 181.577,220.423 181.890 C 220.962 182.031,221.200 181.890,221.200 181.430 C 221.200 181.065,221.560 180.380,222.000 179.908 C 222.440 179.436,222.800 178.813,222.800 178.525 C 222.800 178.236,222.980 178.000,223.200 178.000 C 223.420 178.000,223.600 177.680,223.600 177.288 C 223.600 176.897,223.960 176.317,224.400 176.000 C 224.840 175.683,225.200 175.186,225.200 174.895 C 225.200 174.604,225.560 173.980,226.000 173.508 C 226.440 173.036,226.800 172.413,226.800 172.125 C 226.800 171.836,226.980 171.600,227.200 171.600 C 227.420 171.600,227.600 171.322,227.600 170.983 C 227.600 170.644,227.960 169.980,228.400 169.508 C 228.840 169.036,229.200 168.413,229.200 168.125 C 229.200 167.836,229.380 167.600,229.600 167.600 C 229.820 167.600,230.000 167.280,230.000 166.888 C 230.000 166.497,230.360 165.917,230.800 165.600 C 231.240 165.283,231.600 164.786,231.600 164.495 C 231.600 164.204,231.960 163.580,232.400 163.108 C 232.840 162.636,233.200 162.013,233.200 161.725 C 233.200 161.436,233.380 161.200,233.600 161.200 C 233.820 161.200,234.000 160.922,234.000 160.583 C 234.000 160.244,234.360 159.580,234.800 159.108 C 235.240 158.636,235.600 158.013,235.600 157.725 C 235.600 157.436,235.780 157.200,236.000 157.200 C 236.220 157.200,236.400 156.880,236.400 156.488 C 236.400 156.097,236.760 155.517,237.200 155.200 C 237.640 154.883,238.000 154.386,238.000 154.095 C 238.000 153.804,238.360 153.180,238.800 152.708 C 239.240 152.236,239.600 151.613,239.600 151.325 C 239.600 151.036,239.780 150.800,240.000 150.800 C 240.220 150.800,240.400 150.440,240.400 150.000 C 240.400 149.560,240.559 149.200,240.754 149.200 C 240.949 149.200,241.444 148.525,241.854 147.700 C 242.587 146.226,242.605 147.180,242.896 201.800 C 243.058 232.380,243.287 266.028,243.403 276.572 C 243.545 289.343,243.479 295.881,243.208 296.152 C 242.941 296.419,242.800 303.987,242.800 318.056 C 242.800 330.452,242.647 339.648,242.438 339.777 C 242.239 339.900,242.053 342.385,242.025 345.300 C 241.997 348.311,241.807 350.658,241.587 350.733 C 241.374 350.807,241.200 351.852,241.200 353.057 C 241.200 354.262,241.058 355.160,240.885 355.052 C 240.712 354.945,240.530 355.332,240.483 355.911 C 240.435 356.491,240.216 357.144,239.998 357.362 C 239.779 357.581,239.600 358.174,239.600 358.680 C 239.600 359.186,239.420 359.600,239.200 359.600 C 238.980 359.600,238.800 360.140,238.800 360.800 C 238.800 361.460,238.620 362.000,238.400 362.000 C 238.180 362.000,238.000 362.320,238.000 362.712 C 238.000 363.103,237.640 363.683,237.200 364.000 C 236.760 364.317,236.400 364.810,236.400 365.095 C 236.400 365.823,230.544 371.600,229.806 371.600 C 229.473 371.600,229.200 371.780,229.200 372.000 C 229.200 372.220,228.840 372.400,228.400 372.400 C 227.960 372.400,227.600 372.580,227.600 372.800 C 227.600 373.020,227.240 373.200,226.800 373.200 C 226.360 373.200,226.000 373.380,226.000 373.600 C 226.000 373.820,225.475 374.000,224.833 374.000 C 224.192 374.000,223.607 374.170,223.533 374.379 C 223.460 374.587,222.555 374.800,221.522 374.852 C 220.489 374.904,219.735 375.094,219.845 375.274 C 219.956 375.453,219.227 375.600,218.224 375.600 L 216.400 375.600 216.400 378.000 L 216.400 380.400 265.511 380.400 L 314.621 380.400 314.611 378.500 C 314.599 376.332,314.098 375.600,312.629 375.600 C 312.063 375.600,311.600 375.420,311.600 375.200 C 311.600 374.980,310.880 374.800,310.000 374.800 C 309.120 374.800,308.400 374.620,308.400 374.400 C 308.400 374.180,307.860 374.000,307.200 374.000 C 306.540 374.000,306.000 373.820,306.000 373.600 C 306.000 373.380,305.640 373.200,305.200 373.200 C 304.760 373.200,304.400 373.020,304.400 372.800 C 304.400 372.580,304.080 372.400,303.688 372.400 C 303.297 372.400,302.717 372.040,302.400 371.600 C 302.083 371.160,301.584 370.800,301.292 370.800 C 300.498 370.800,295.143 365.215,295.455 364.711 C 295.615 364.451,295.538 364.391,295.262 364.562 C 294.988 364.731,294.800 364.593,294.800 364.224 C 294.800 363.881,294.620 363.600,294.400 363.600 C 294.180 363.600,294.000 363.240,294.000 362.800 C 294.000 362.360,293.820 362.000,293.600 362.000 C 293.380 362.000,293.200 361.640,293.200 361.200 C 293.200 360.760,293.020 360.400,292.800 360.400 C 292.580 360.400,292.400 360.040,292.400 359.600 C 292.400 359.160,292.220 358.800,292.000 358.800 C 291.780 358.800,291.600 358.260,291.600 357.600 C 291.600 356.940,291.420 356.400,291.200 356.400 C 290.980 356.400,290.800 355.961,290.800 355.424 C 290.800 354.887,290.620 354.336,290.400 354.200 C 290.180 354.064,290.000 353.063,290.000 351.976 C 290.000 350.889,289.820 350.000,289.600 350.000 C 289.367 350.000,289.200 348.667,289.200 346.800 C 289.200 344.933,289.033 343.600,288.800 343.600 C 288.538 343.600,288.400 336.329,288.400 322.587 C 288.400 304.279,288.323 301.545,287.800 301.345 C 286.899 300.999,286.899 276.748,287.800 276.000 C 288.710 275.245,288.710 190.355,287.800 189.600 C 286.902 188.855,286.902 169.689,287.800 169.345 C 288.309 169.149,288.400 167.737,288.400 160.037 C 288.400 153.329,288.531 150.819,288.900 150.421 C 289.306 149.984,289.288 149.942,288.800 150.200 C 288.312 150.458,288.294 150.416,288.700 149.979 C 289.005 149.650,289.200 148.302,289.200 146.520 C 289.200 144.840,289.370 143.600,289.600 143.600 C 289.820 143.600,290.000 142.700,290.000 141.600 C 290.000 140.500,290.180 139.600,290.400 139.600 C 290.620 139.600,290.800 139.251,290.800 138.824 C 290.800 138.397,290.980 137.936,291.200 137.800 C 291.420 137.664,291.600 137.113,291.600 136.576 C 291.600 136.039,291.780 135.600,292.000 135.600 C 292.220 135.600,292.400 135.240,292.400 134.800 C 292.400 134.360,292.580 134.000,292.800 134.000 C 293.020 134.000,293.200 133.640,293.200 133.200 C 293.200 132.760,293.350 132.400,293.532 132.400 C 293.715 132.400,294.119 131.905,294.430 131.300 C 295.097 130.001,299.807 125.200,300.414 125.200 C 300.645 125.200,301.220 124.840,301.692 124.400 C 302.164 123.960,302.787 123.600,303.075 123.600 C 303.364 123.600,303.600 123.420,303.600 123.200 C 303.600 122.980,304.039 122.800,304.576 122.800 C 305.113 122.800,305.664 122.620,305.800 122.400 C 305.936 122.180,306.397 122.000,306.824 122.000 C 307.251 122.000,307.600 121.820,307.600 121.600 C 307.600 121.380,308.219 121.200,308.976 121.200 C 309.733 121.200,310.464 121.020,310.600 120.800 C 310.736 120.580,311.479 120.400,312.252 120.400 C 314.415 120.400,315.684 116.950,314.129 115.300 C 313.576 114.714,222.800 114.550,222.800 115.136 C 222.800 115.738,220.802 116.400,218.981 116.400 C 216.231 116.400,216.262 118.733,219.027 119.789 C 220.429 120.324,221.011 120.826,221.527 121.943 C 221.897 122.745,222.335 123.460,222.500 123.533 C 222.665 123.607,222.800 124.012,222.800 124.433 C 222.800 124.855,222.980 125.200,223.200 125.200 C 223.428 125.200,223.600 126.392,223.600 127.976 C 223.600 129.503,223.420 130.864,223.200 131.000 C 222.980 131.136,222.800 131.867,222.800 132.624 C 222.800 133.381,222.620 134.000,222.400 134.000 C 222.180 134.000,222.000 134.540,222.000 135.200 C 222.000 135.860,221.820 136.400,221.600 136.400 C 221.380 136.400,221.200 136.760,221.200 137.200 C 221.200 137.640,221.020 138.000,220.800 138.000 C 220.580 138.000,220.398 138.495,220.396 139.100 C 220.381 142.726,219.871 143.657,202.601 171.600 C 199.134 177.210,193.912 185.670,190.997 190.400 C 188.083 195.130,182.861 203.590,179.394 209.200 C 175.928 214.810,172.622 220.165,172.048 221.100 C 171.372 222.202,170.719 222.800,170.191 222.800 C 169.743 222.800,169.117 223.160,168.800 223.600 C 168.065 224.620,167.600 224.620,167.600 223.600 C 167.600 223.160,167.420 222.800,167.200 222.800 C 166.980 222.800,166.800 222.440,166.800 222.000 C 166.800 221.560,166.620 221.200,166.400 221.200 C 166.180 221.200,166.000 220.840,166.000 220.400 C 166.000 219.960,165.820 219.600,165.600 219.600 C 165.380 219.600,165.200 219.364,165.200 219.075 C 165.200 218.787,164.840 218.164,164.400 217.692 C 163.960 217.220,163.600 216.556,163.600 216.217 C 163.600 215.878,163.465 215.599,163.300 215.597 C 162.989 215.594,162.000 213.697,162.000 213.104 C 162.000 212.918,161.640 212.380,161.200 211.908 C 160.760 211.436,160.400 210.757,160.400 210.400 C 160.400 210.043,160.040 209.364,159.600 208.892 C 159.160 208.420,158.800 207.756,158.800 207.417 C 158.800 207.078,158.620 206.800,158.400 206.800 C 158.180 206.800,158.000 206.440,158.000 206.000 C 158.000 205.560,157.820 205.200,157.600 205.200 C 157.380 205.200,157.200 204.840,157.200 204.400 C 157.200 203.960,157.020 203.600,156.800 203.600 C 156.580 203.600,156.400 203.240,156.400 202.800 C 156.400 202.360,156.220 202.000,156.000 202.000 C 155.780 202.000,155.600 201.764,155.600 201.475 C 155.600 201.187,155.240 200.564,154.800 200.092 C 154.360 199.620,154.000 198.956,154.000 198.617 C 154.000 198.278,153.820 198.000,153.600 198.000 C 153.380 198.000,153.200 197.640,153.200 197.200 C 153.200 196.760,153.020 196.400,152.800 196.400 C 152.580 196.400,152.400 196.040,152.400 195.600 C 152.400 195.160,152.220 194.800,152.000 194.800 C 151.780 194.800,151.600 194.564,151.600 194.275 C 151.600 193.987,151.240 193.364,150.800 192.892 C 150.360 192.420,150.000 191.756,150.000 191.417 C 150.000 191.078,149.865 190.799,149.700 190.797 C 149.389 190.794,148.400 188.897,148.400 188.304 C 148.400 188.118,148.040 187.580,147.600 187.108 C 147.160 186.636,146.800 185.957,146.800 185.600 C 146.800 185.243,146.440 184.564,146.000 184.092 C 145.560 183.620,145.200 182.956,145.200 182.617 C 145.200 182.278,145.020 182.000,144.800 182.000 C 144.580 182.000,144.400 181.640,144.400 181.200 C 144.400 180.760,144.220 180.400,144.000 180.400 C 143.780 180.400,143.600 180.040,143.600 179.600 C 143.600 179.160,143.420 178.800,143.200 178.800 C 142.980 178.800,142.800 178.440,142.800 178.000 C 142.800 177.560,142.620 177.200,142.400 177.200 C 142.180 177.200,142.000 176.964,142.000 176.675 C 142.000 176.387,141.640 175.764,141.200 175.292 C 140.760 174.820,140.400 174.156,140.400 173.817 C 140.400 173.478,140.220 173.200,140.000 173.200 C 139.780 173.200,139.600 172.840,139.600 172.400 C 139.600 171.960,139.420 171.600,139.200 171.600 C 138.980 171.600,138.800 171.240,138.800 170.800 C 138.800 170.360,138.620 170.000,138.400 170.000 C 138.180 170.000,138.000 169.764,138.000 169.475 C 138.000 169.187,137.640 168.564,137.200 168.092 C 136.760 167.620,136.400 166.956,136.400 166.617 C 136.400 166.278,136.265 165.999,136.100 165.997 C 135.789 165.994,134.800 164.097,134.800 163.504 C 134.800 163.318,134.440 162.780,134.000 162.308 C 133.560 161.836,133.200 161.157,133.200 160.800 C 133.200 160.443,132.840 159.764,132.400 159.292 C 131.960 158.820,131.600 158.156,131.600 157.817 C 131.600 157.478,131.420 157.200,131.200 157.200 C 130.980 157.200,130.800 156.840,130.800 156.400 C 130.800 155.960,130.620 155.600,130.400 155.600 C 130.180 155.600,130.000 155.240,130.000 154.800 C 130.000 154.360,129.820 154.000,129.600 154.000 C 129.380 154.000,129.200 153.640,129.200 153.200 C 129.200 152.760,129.020 152.400,128.800 152.400 C 128.580 152.400,128.400 152.164,128.400 151.875 C 128.400 151.587,128.040 150.964,127.600 150.492 C 127.160 150.020,126.800 149.356,126.800 149.017 C 126.800 148.678,126.620 148.400,126.400 148.400 C 126.180 148.400,126.000 148.040,126.000 147.600 C 126.000 147.160,125.820 146.800,125.600 146.800 C 125.380 146.800,125.200 146.440,125.200 146.000 C 125.200 145.560,125.020 145.200,124.800 145.200 C 124.580 145.200,124.400 144.964,124.400 144.675 C 124.400 144.387,124.040 143.764,123.600 143.292 C 123.160 142.820,122.800 142.156,122.800 141.817 C 122.800 141.478,122.620 141.200,122.400 141.200 C 122.180 141.200,122.000 140.840,122.000 140.400 C 122.000 139.960,121.820 139.600,121.600 139.600 C 121.380 139.600,121.200 139.240,121.200 138.800 C 121.200 138.360,121.020 138.000,120.800 138.000 C 120.580 138.000,120.400 137.640,120.400 137.200 C 120.400 136.760,120.220 136.400,120.000 136.400 C 119.780 136.400,119.600 135.860,119.600 135.200 C 119.600 134.540,119.420 134.000,119.200 134.000 C 118.980 134.000,118.800 133.460,118.800 132.800 C 118.800 132.140,118.620 131.600,118.400 131.600 C 118.163 131.600,118.000 130.133,118.000 128.000 C 118.000 125.867,118.163 124.400,118.400 124.400 C 118.620 124.400,118.800 124.040,118.800 123.600 C 118.800 123.100,119.067 122.800,119.512 122.800 C 119.903 122.800,120.483 122.440,120.800 122.000 C 121.117 121.560,121.697 121.200,122.088 121.200 C 122.480 121.200,122.800 121.020,122.800 120.800 C 122.800 120.580,123.160 120.400,123.600 120.400 C 124.324 120.400,124.400 120.133,124.400 117.600 L 124.400 114.800 72.800 114.800 L 21.200 114.800 21.200 117.600 " stroke="none" fill="#43b4dc" fill-rule="evenodd"></path><path id="path2" d="M287.371 179.600 C 287.371 184.550,287.428 186.575,287.499 184.100 C 287.569 181.625,287.569 177.575,287.499 175.100 C 287.428 172.625,287.371 174.650,287.371 179.600 M287.377 288.800 C 287.377 295.290,287.432 297.945,287.499 294.700 C 287.566 291.455,287.566 286.145,287.499 282.900 C 287.432 279.655,287.377 282.310,287.377 288.800 " stroke="none" fill="#9cc494" fill-rule="evenodd"></path><path id="path3" d="M217.067 116.267 C 215.956 117.377,217.268 120.065,218.874 119.968 C 219.163 119.951,218.905 119.756,218.300 119.535 C 216.044 118.711,216.735 116.474,219.300 116.295 L 221.400 116.148 219.367 116.074 C 218.248 116.033,217.213 116.120,217.067 116.267 M314.493 117.600 C 314.493 118.370,314.575 118.685,314.676 118.300 C 314.776 117.915,314.776 117.285,314.676 116.900 C 314.575 116.515,314.493 116.830,314.493 117.600 M217.414 146.635 C 217.041 147.204,216.805 147.738,216.889 147.822 C 216.973 147.907,217.358 147.441,217.744 146.788 C 218.606 145.328,218.348 145.209,217.414 146.635 M215.800 149.600 C 215.459 150.260,215.269 150.800,215.379 150.800 C 215.489 150.800,215.859 150.260,216.200 149.600 C 216.541 148.940,216.731 148.400,216.621 148.400 C 216.511 148.400,216.141 148.940,215.800 149.600 M213.753 152.900 C 212.376 155.236,212.286 155.435,212.987 154.600 C 213.800 153.632,214.500 152.400,214.238 152.400 C 214.133 152.400,213.915 152.625,213.753 152.900 M210.308 158.500 C 209.433 159.849,208.648 161.456,209.087 161.000 C 209.648 160.417,211.298 157.600,211.079 157.600 C 210.976 157.600,210.629 158.005,210.308 158.500 M206.717 164.300 C 205.485 166.169,204.717 167.600,204.946 167.600 C 205.042 167.600,205.475 166.999,205.908 166.265 C 206.341 165.531,207.010 164.451,207.394 163.865 C 207.778 163.279,208.005 162.800,207.899 162.800 C 207.793 162.800,207.261 163.475,206.717 164.300 M203.453 169.591 C 202.874 170.467,202.400 171.317,202.400 171.480 C 202.400 171.644,202.642 171.423,202.939 170.989 C 204.241 169.081,204.878 168.000,204.699 168.000 C 204.593 168.000,204.032 168.716,203.453 169.591 M199.908 175.300 C 199.033 176.649,198.248 178.256,198.687 177.800 C 199.248 177.217,200.898 174.400,200.679 174.400 C 200.576 174.400,200.229 174.805,199.908 175.300 M197.446 179.400 C 197.091 179.950,196.509 180.895,196.153 181.500 L 195.505 182.600 196.310 181.626 C 197.260 180.476,198.521 178.400,198.269 178.400 C 198.171 178.400,197.801 178.850,197.446 179.400 M217.552 184.500 C 217.290 184.995,216.815 185.850,216.496 186.400 C 215.939 187.359,215.943 187.367,216.588 186.600 C 217.386 185.652,218.505 183.600,218.224 183.600 C 218.116 183.600,217.814 184.005,217.552 184.500 M193.508 185.700 C 192.633 187.049,191.848 188.656,192.287 188.200 C 192.848 187.617,194.498 184.800,194.279 184.800 C 194.176 184.800,193.829 185.205,193.508 185.700 M190.553 190.500 C 189.176 192.836,189.086 193.035,189.787 192.200 C 190.600 191.232,191.300 190.000,191.038 190.000 C 190.933 190.000,190.715 190.225,190.553 190.500 M213.552 190.900 C 213.290 191.395,212.815 192.250,212.496 192.800 C 211.939 193.759,211.943 193.767,212.588 193.000 C 213.386 192.052,214.505 190.000,214.224 190.000 C 214.116 190.000,213.814 190.405,213.552 190.900 M210.892 195.335 C 210.459 196.069,209.789 197.194,209.405 197.835 L 208.705 199.000 209.533 198.000 C 210.479 196.857,212.144 194.000,211.865 194.000 C 211.763 194.000,211.325 194.601,210.892 195.335 M187.108 196.100 C 186.233 197.449,185.448 199.056,185.887 198.600 C 186.448 198.017,188.098 195.200,187.879 195.200 C 187.776 195.200,187.429 195.605,187.108 196.100 M207.152 201.300 C 206.890 201.795,206.415 202.650,206.096 203.200 C 205.539 204.159,205.543 204.167,206.188 203.400 C 206.986 202.452,208.105 200.400,207.824 200.400 C 207.716 200.400,207.414 200.805,207.152 201.300 M183.108 202.500 C 182.233 203.849,181.448 205.456,181.887 205.000 C 182.448 204.417,184.098 201.600,183.879 201.600 C 183.776 201.600,183.429 202.005,183.108 202.500 M180.317 207.100 C 179.085 208.969,178.317 210.400,178.546 210.400 C 178.642 210.400,179.075 209.799,179.508 209.065 C 179.941 208.331,180.610 207.251,180.994 206.665 C 181.378 206.079,181.605 205.600,181.499 205.600 C 181.393 205.600,180.861 206.275,180.317 207.100 M203.753 206.900 C 202.376 209.236,202.286 209.435,202.987 208.600 C 203.800 207.632,204.500 206.400,204.238 206.400 C 204.133 206.400,203.915 206.625,203.753 206.900 M200.752 211.700 C 200.490 212.195,200.015 213.050,199.696 213.600 C 199.139 214.559,199.143 214.567,199.788 213.800 C 200.586 212.852,201.705 210.800,201.424 210.800 C 201.316 210.800,201.014 211.205,200.752 211.700 M176.708 212.900 C 175.833 214.249,175.048 215.856,175.487 215.400 C 176.048 214.817,177.698 212.000,177.479 212.000 C 177.376 212.000,177.029 212.405,176.708 212.900 M174.246 217.000 C 173.891 217.550,173.309 218.495,172.953 219.100 L 172.305 220.200 173.110 219.226 C 174.060 218.076,175.321 216.000,175.069 216.000 C 174.971 216.000,174.601 216.450,174.246 217.000 M197.353 217.300 C 195.976 219.636,195.886 219.835,196.587 219.000 C 197.400 218.032,198.100 216.800,197.838 216.800 C 197.733 216.800,197.515 217.025,197.353 217.300 M194.352 222.100 C 194.090 222.595,193.615 223.450,193.296 224.000 C 192.739 224.959,192.743 224.967,193.388 224.200 C 194.186 223.252,195.305 221.200,195.024 221.200 C 194.916 221.200,194.614 221.605,194.352 222.100 M190.646 228.200 C 190.291 228.750,189.709 229.695,189.353 230.300 L 188.705 231.400 189.510 230.426 C 190.460 229.276,191.721 227.200,191.469 227.200 C 191.371 227.200,191.001 227.650,190.646 228.200 M187.952 232.500 C 187.690 232.995,187.215 233.850,186.896 234.400 C 186.339 235.359,186.343 235.367,186.988 234.600 C 187.786 233.652,188.905 231.600,188.624 231.600 C 188.516 231.600,188.214 232.005,187.952 232.500 M184.246 238.600 C 183.891 239.150,183.309 240.095,182.953 240.700 L 182.305 241.800 183.110 240.826 C 184.060 239.676,185.321 237.600,185.069 237.600 C 184.971 237.600,184.601 238.050,184.246 238.600 M181.223 243.450 C 180.753 244.248,180.433 244.966,180.513 245.046 C 180.592 245.126,181.061 244.473,181.554 243.596 C 182.675 241.602,182.388 241.477,181.223 243.450 M243.200 277.080 C 243.090 287.684,243.137 296.224,243.304 296.056 C 243.471 295.889,243.561 287.213,243.504 276.776 L 243.400 257.800 243.200 277.080 M314.493 378.400 C 314.493 379.170,314.575 379.485,314.676 379.100 C 314.776 378.715,314.776 378.085,314.676 377.700 C 314.575 377.315,314.493 377.630,314.493 378.400 " stroke="none" fill="#84bea6" fill-rule="evenodd"></path><path id="path4" d="M217.907 115.890 C 218.626 115.979,219.706 115.977,220.307 115.886 C 220.908 115.795,220.320 115.722,219.000 115.724 C 217.680 115.726,217.188 115.801,217.907 115.890 M216.493 117.600 C 216.493 118.370,216.575 118.685,216.676 118.300 C 216.776 117.915,216.776 117.285,216.676 116.900 C 216.575 116.515,216.493 116.830,216.493 117.600 M219.146 120.616 C 219.886 120.937,220.606 121.194,220.746 121.186 C 221.266 121.157,218.976 120.028,218.400 120.030 C 218.070 120.031,218.406 120.294,219.146 120.616 M218.278 144.205 C 217.912 144.972,217.695 145.600,217.796 145.600 C 218.070 145.600,219.284 143.151,219.101 142.968 C 219.014 142.881,218.644 143.438,218.278 144.205 M215.053 150.100 L 214.333 151.400 215.158 150.400 C 215.889 149.513,216.214 148.800,215.886 148.800 C 215.824 148.800,215.449 149.385,215.053 150.100 M213.552 152.500 C 213.290 152.995,212.815 153.850,212.496 154.400 C 211.939 155.359,211.943 155.367,212.588 154.600 C 213.386 153.652,214.505 151.600,214.224 151.600 C 214.116 151.600,213.814 152.005,213.552 152.500 M209.570 158.866 C 209.298 159.380,208.813 160.205,208.492 160.700 C 208.171 161.195,207.995 161.600,208.101 161.600 C 208.436 161.600,210.469 158.336,210.262 158.129 C 210.154 158.020,209.842 158.352,209.570 158.866 M206.892 163.335 C 206.459 164.069,205.789 165.194,205.405 165.835 L 204.705 167.000 205.533 166.000 C 206.479 164.857,208.144 162.000,207.865 162.000 C 207.763 162.000,207.325 162.601,206.892 163.335 M203.152 169.300 C 202.890 169.795,202.415 170.650,202.096 171.200 C 201.539 172.159,201.543 172.167,202.188 171.400 C 202.986 170.452,204.105 168.400,203.824 168.400 C 203.716 168.400,203.414 168.805,203.152 169.300 M287.867 169.467 C 287.502 169.832,287.539 188.485,287.906 189.062 C 288.068 189.317,288.200 184.952,288.200 179.362 C 288.200 173.773,288.185 169.200,288.167 169.200 C 288.148 169.200,288.013 169.320,287.867 169.467 M199.970 174.466 C 199.698 174.980,199.213 175.805,198.892 176.300 C 198.571 176.795,198.395 177.200,198.501 177.200 C 198.836 177.200,200.869 173.936,200.662 173.729 C 200.554 173.620,200.242 173.952,199.970 174.466 M196.752 179.700 C 196.490 180.195,196.015 181.050,195.696 181.600 C 195.139 182.559,195.143 182.567,195.788 181.800 C 196.586 180.852,197.705 178.800,197.424 178.800 C 197.316 178.800,197.014 179.205,196.752 179.700 M217.117 185.900 C 216.573 186.725,215.914 187.850,215.653 188.400 L 215.177 189.400 215.888 188.434 C 216.907 187.052,218.476 184.400,218.276 184.400 C 218.183 184.400,217.661 185.075,217.117 185.900 M192.770 186.066 C 192.498 186.580,192.013 187.405,191.692 187.900 C 191.371 188.395,191.195 188.800,191.301 188.800 C 191.636 188.800,193.669 185.536,193.462 185.329 C 193.354 185.220,193.042 185.552,192.770 186.066 M190.352 190.100 C 190.090 190.595,189.615 191.450,189.296 192.000 C 188.739 192.959,188.743 192.967,189.388 192.200 C 190.186 191.252,191.305 189.200,191.024 189.200 C 190.916 189.200,190.614 189.605,190.352 190.100 M214.308 190.500 C 213.433 191.849,212.648 193.456,213.087 193.000 C 213.648 192.417,215.298 189.600,215.079 189.600 C 214.976 189.600,214.629 190.005,214.308 190.500 M186.370 196.466 C 186.098 196.980,185.613 197.805,185.292 198.300 C 184.971 198.795,184.795 199.200,184.901 199.200 C 185.236 199.200,187.269 195.936,187.062 195.729 C 186.954 195.620,186.642 195.952,186.370 196.466 M210.308 196.900 C 209.433 198.249,208.648 199.856,209.087 199.400 C 209.648 198.817,211.298 196.000,211.079 196.000 C 210.976 196.000,210.629 196.405,210.308 196.900 M207.453 201.591 C 206.453 203.102,206.015 204.196,206.736 203.380 C 207.292 202.752,208.879 200.000,208.686 200.000 C 208.587 200.000,208.032 200.716,207.453 201.591 M183.170 201.666 C 182.898 202.180,182.413 203.005,182.092 203.500 C 181.771 203.995,181.595 204.400,181.701 204.400 C 182.036 204.400,184.069 201.136,183.862 200.929 C 183.754 200.820,183.442 201.152,183.170 201.666 M179.952 206.900 C 179.690 207.395,179.215 208.250,178.896 208.800 C 178.339 209.759,178.343 209.767,178.988 209.000 C 179.786 208.052,180.905 206.000,180.624 206.000 C 180.516 206.000,180.214 206.405,179.952 206.900 M203.908 207.300 C 203.033 208.649,202.248 210.256,202.687 209.800 C 203.248 209.217,204.898 206.400,204.679 206.400 C 204.576 206.400,204.229 206.805,203.908 207.300 M201.053 211.991 C 200.053 213.502,199.615 214.596,200.336 213.780 C 200.892 213.152,202.479 210.400,202.286 210.400 C 202.187 210.400,201.632 211.116,201.053 211.991 M176.722 212.100 C 175.111 214.642,174.309 216.215,175.141 215.200 C 176.076 214.059,177.742 211.200,177.472 211.200 C 177.373 211.200,177.035 211.605,176.722 212.100 M173.552 217.300 C 173.290 217.795,172.815 218.650,172.496 219.200 C 171.939 220.159,171.943 220.167,172.588 219.400 C 173.386 218.452,174.505 216.400,174.224 216.400 C 174.116 216.400,173.814 216.805,173.552 217.300 M197.508 217.700 C 196.633 219.049,195.848 220.656,196.287 220.200 C 196.848 219.617,198.498 216.800,198.279 216.800 C 198.176 216.800,197.829 217.205,197.508 217.700 M194.653 222.391 C 193.653 223.902,193.215 224.996,193.936 224.180 C 194.492 223.552,196.079 220.800,195.886 220.800 C 195.787 220.800,195.232 221.516,194.653 222.391 M191.108 228.100 C 190.233 229.449,189.448 231.056,189.887 230.600 C 190.448 230.017,192.098 227.200,191.879 227.200 C 191.776 227.200,191.429 227.605,191.108 228.100 M188.253 232.791 C 187.253 234.302,186.815 235.396,187.536 234.580 C 188.092 233.952,189.679 231.200,189.486 231.200 C 189.387 231.200,188.832 231.916,188.253 232.791 M184.708 238.500 C 183.833 239.849,183.048 241.456,183.487 241.000 C 184.048 240.417,185.698 237.600,185.479 237.600 C 185.376 237.600,185.029 238.005,184.708 238.500 M181.853 243.191 C 180.853 244.702,180.415 245.796,181.136 244.980 C 181.692 244.352,183.279 241.600,183.086 241.600 C 182.987 241.600,182.432 242.316,181.853 243.191 M287.685 288.676 C 287.638 295.318,287.735 300.836,287.900 300.939 C 288.065 301.041,288.154 297.497,288.098 293.062 C 287.907 278.021,287.770 276.563,287.685 288.676 " stroke="none" fill="#acc484" fill-rule="evenodd"></path></g></svg>